<svg xmlns="http://www.w3.org/2000/svg" width="1920" height="1920" viewBox="0 0 1920 1920" preserveAspectRatio="xMidYMid slice" role="img" aria-label="Dawn rally — lifted indigo horizon">
  <defs>
    
    <linearGradient id="dn-cyc" x1="0" y1="0" x2="0" y2="1">
      <stop offset="0%" stop-color="#3A1AA8"/>
      <stop offset="35%" stop-color="#13016F"/>
      <stop offset="70%" stop-color="#0A0147"/>
      <stop offset="100%" stop-color="#050024"/>
    </linearGradient>
    <radialGradient id="dn-sun" cx="50%" cy="28%" r="40%">
      <stop offset="0%" stop-color="#FFF500" stop-opacity="0.28"/>
      <stop offset="100%" stop-color="#FFF500" stop-opacity="0"/>
    </radialGradient>
  </defs>
  
    <rect width="1920" height="1920" fill="url(#dn-cyc)"/>
    <rect width="1920" height="1920" fill="url(#dn-sun)"/>
    <path d="M0 980 Q480 860 960 920 T1920 860 L1920 1920 L0 1920 Z" fill="#050024" opacity="0.55"/>
    <path d="M0 980 Q480 860 960 920 T1920 860" fill="none" stroke="#FFF500" stroke-opacity="0.45" stroke-width="2"/>
    <g opacity="0.2" fill="none" stroke="#FFF500" stroke-width="2">
      <path d="M400 1920 L700 1280 H1220 L1520 1920"/>
    </g>
    
  <g transform="translate(160 1696) scale(1)" opacity="0.4">
    
  <g fill="none" stroke="#FFF500" stroke-width="18" stroke-linecap="round" stroke-linejoin="round" opacity="0.88">
    <path d="M0 72 V36 Q0 0 22 0 Q44 0 44 36 V72"/>
    <path d="M44 72 V36 Q44 0 66 0 Q88 0 88 36 V-28"/>
    <path d="M88 -28 Q122 -28 122 8 Q122 44 88 44"/>
  </g>

    <text x="148" y="28" fill="#F7F4EA" font-family="Arial Black, Helvetica, sans-serif" font-size="28" letter-spacing="6">WORLD PICKLEBALL</text>
    <text x="148" y="58" fill="#FFF500" font-family="Arial, Helvetica, sans-serif" font-size="14" letter-spacing="10">MAGAZINE  ·  PODCAST</text>
  </g>
</svg>
