<svg xmlns="http://www.w3.org/2000/svg" width="1920" height="1920" viewBox="0 0 1920 1920" preserveAspectRatio="xMidYMid slice" role="img" aria-label="Neon cyc — yellow key on indigo">
  <defs>
    
    <linearGradient id="ne-cyc" x1="0" y1="0" x2="0" y2="1">
      <stop offset="0%" stop-color="#2A1800"/>
      <stop offset="28%" stop-color="#13016F"/>
      <stop offset="100%" stop-color="#090046"/>
    </linearGradient>
    <radialGradient id="ne-hot" cx="50%" cy="0%" r="62%">
      <stop offset="0%" stop-color="#FFF500" stop-opacity="0.5"/>
      <stop offset="38%" stop-color="#FFF500" stop-opacity="0.12"/>
      <stop offset="100%" stop-color="#13016F" stop-opacity="0"/>
    </radialGradient>
  </defs>
  
    <rect width="1920" height="1920" fill="url(#ne-cyc)"/>
    <rect width="1920" height="1920" fill="url(#ne-hot)"/>
    <rect x="70" y="70" width="1780" height="1780" rx="18" fill="none" stroke="#FFF500" stroke-opacity="0.42" stroke-width="2"/>
    <g opacity="0.22" fill="none" stroke="#FFF500" stroke-width="4">
      <path d="M480 1840 L720 1280 H1200 L1440 1840"/>
      <path d="M960 1280 V1840"/>
    </g>
    
  <g transform="translate(160 1690) scale(1)" opacity="0.36">
    
  <g fill="none" stroke="#FFF500" stroke-width="18" stroke-linecap="round" stroke-linejoin="round" opacity="0.88">
    <path d="M0 72 V36 Q0 0 22 0 Q44 0 44 36 V72"/>
    <path d="M44 72 V36 Q44 0 66 0 Q88 0 88 36 V-28"/>
    <path d="M88 -28 Q122 -28 122 8 Q122 44 88 44"/>
  </g>

    <text x="148" y="28" fill="#F7F4EA" font-family="Arial Black, Helvetica, sans-serif" font-size="28" letter-spacing="6">WORLD PICKLEBALL</text>
    <text x="148" y="58" fill="#FFF500" font-family="Arial, Helvetica, sans-serif" font-size="14" letter-spacing="10">MAGAZINE  ·  PODCAST</text>
  </g>
</svg>
